<svg width="45" height="45" viewBox="0 0 45 45" fill="none" xmlns="http://www.w3.org/2000/svg">
<path d="M41.7806 39.7829L32.64 30.6423H32.5416C35.3589 27.3204 36.7827 23.0377 36.515 18.6902C36.2473 14.3426 34.3089 10.267 31.1052 7.31582C27.9015 4.36465 23.6808 2.76656 19.326 2.85584C14.9711 2.94513 10.8195 4.71487 7.73945 7.79487C4.65945 10.8749 2.88971 15.0265 2.80042 19.3814C2.71114 23.7363 4.30923 27.957 7.2604 31.1606C10.2116 34.3643 14.2872 36.3027 18.6347 36.5704C22.9823 36.8381 27.2649 35.4144 30.5869 32.597C30.5869 32.597 30.5869 32.6673 30.5869 32.6954L39.7275 41.836C39.8582 41.9678 40.0138 42.0725 40.1851 42.1439C40.3565 42.2152 40.5403 42.252 40.7259 42.252C40.9116 42.252 41.0954 42.2152 41.2667 42.1439C41.4381 42.0725 41.5936 41.9678 41.7244 41.836C41.8685 41.7084 41.985 41.5525 42.0664 41.378C42.1479 41.2035 42.1926 41.0142 42.1979 40.8217C42.2032 40.6292 42.1689 40.4377 42.0971 40.259C42.0253 40.0803 41.9176 39.9183 41.7806 39.7829ZM19.6884 33.7501C16.9071 33.7501 14.1883 32.9253 11.8757 31.3801C9.56316 29.8349 7.76073 27.6387 6.69638 25.0691C5.63202 22.4995 5.35353 19.672 5.89614 16.9441C6.43874 14.2163 7.77807 11.7106 9.74474 9.74391C11.7114 7.77724 14.2171 6.43791 16.945 5.89531C19.6728 5.3527 22.5003 5.63119 25.0699 6.69555C27.6395 7.7599 29.8358 9.56233 31.381 11.8749C32.9262 14.1875 33.7509 16.9063 33.7509 19.6876C33.7509 21.5343 33.3872 23.3629 32.6805 25.0691C31.9738 26.7752 30.9379 28.3255 29.6321 29.6313C28.3263 30.9371 26.7761 31.9729 25.0699 32.6797C23.3638 33.3864 21.5351 33.7501 19.6884 33.7501Z" fill="white" stroke="white" stroke-width="0.5"/>
</svg>
