<svg width="45" height="45" viewBox="0 0 45 45" fill="none" xmlns="http://www.w3.org/2000/svg">
<path d="M33.7508 29.97L37.1487 33.3679C37.3933 33.6125 37.5308 33.9444 37.5308 34.2904V34.2904C37.5308 35.0109 36.9467 35.595 36.2262 35.595H8.77727C8.05675 35.595 7.47266 35.0109 7.47266 34.2904V34.2904C7.47266 33.9444 7.61011 33.6125 7.85477 33.3679L11.2527 29.97V20.6531C11.2527 14.8518 14.3295 10.1062 19.6902 8.7881V7.46997C19.6902 5.88747 20.9202 4.65747 22.5027 4.65747C24.0852 4.65747 25.3152 5.88747 25.3152 7.46997V8.7881C30.6758 10.1062 33.7527 14.94 33.7527 20.6531L33.7508 29.97ZM22.5008 41.22C20.3914 41.22 18.7208 39.5493 18.7208 37.5281H26.2789C26.2789 39.5493 24.5202 41.22 22.4989 41.22H22.5008Z" stroke="white" stroke-width="4"/>
</svg>
