<svg width="46" height="46" viewBox="0 0 46 46" fill="none" xmlns="http://www.w3.org/2000/svg">
<path d="M23 44C34.598 44 44 34.598 44 23C44 11.402 34.598 2 23 2C11.402 2 2 11.402 2 23C2 34.598 11.402 44 23 44Z" stroke="white" stroke-width="4" stroke-miterlimit="10" stroke-linejoin="round"/>
<path d="M37 38.3999C37 30.6677 30.7322 24.3999 23 24.3999C15.2678 24.3999 9 30.6677 9 38.3999" stroke="white" stroke-width="4" stroke-miterlimit="10" stroke-linejoin="round"/>
<path d="M22.9996 24.4001C27.6388 24.4001 31.3996 20.6393 31.3996 16.0001C31.3996 11.3609 27.6388 7.6001 22.9996 7.6001C18.3604 7.6001 14.5996 11.3609 14.5996 16.0001C14.5996 20.6393 18.3604 24.4001 22.9996 24.4001Z" stroke="white" stroke-width="4" stroke-miterlimit="10" stroke-linejoin="round"/>
</svg>
